<svg height='300px' width='300px'  fill="#404e67" xmlns="http://www.w3.org/2000/svg" viewBox="0 0 64 64" x="0px" y="0px"><title>quality, certified, good</title><g><path d="M32,12.802A19.1982,19.1982,0,1,0,51.1982,32,19.22,19.22,0,0,0,32,12.802Zm0,36.3964A17.1982,17.1982,0,1,1,49.1982,32,17.2176,17.2176,0,0,1,32,49.1984Zm7.9146-23.0937a.9994.9994,0,0,1,.1816,1.4023L30.6909,39.7141a.9981.9981,0,0,1-.792.39H29.897a1.0013,1.0013,0,0,1-.7925-.3926l-5.2031-6.8037A1,1,0,0,1,25.49,31.6926l4.4117,5.7685,8.61-11.1748A.9975.9975,0,0,1,39.9146,26.1047ZM56.7368,36.7668C58.0249,35.426,59.4844,33.9055,59.4844,32s-1.4595-3.4258-2.7476-4.7666a8.457,8.457,0,0,1-1.9917-2.624,8.7727,8.7727,0,0,1,.0508-3.4395c.2529-1.8935.5142-3.8515-.56-5.3281-1.0859-1.4912-3.04-1.8467-4.93-2.19a8.6621,8.6621,0,0,1-3.252-.9961,8.5969,8.5969,0,0,1-1.9189-2.7539c-.9151-1.7051-1.86-3.47-3.64-4.0469-1.7065-.5557-3.4707.291-5.1758,1.1084A8.8573,8.8573,0,0,1,32,8.091a8.8573,8.8573,0,0,1-3.3193-1.1279C26.9756,6.1457,25.2129,5.3,23.5054,5.8547c-1.78.5771-2.7251,2.3418-3.64,4.0469a8.5969,8.5969,0,0,1-1.9189,2.7539,8.6727,8.6727,0,0,1-3.2515.9961c-1.8906.3437-3.8452.6992-4.9311,2.1914-1.0743,1.4756-.813,3.4336-.56,5.3271A8.7727,8.7727,0,0,1,9.2549,24.61a8.457,8.457,0,0,1-1.9917,2.624C5.9751,28.5744,4.5156,30.0949,4.5156,32s1.46,3.4258,2.7476,4.7666a8.457,8.457,0,0,1,1.9917,2.624,8.7727,8.7727,0,0,1-.0508,3.44c-.2529,1.8935-.5142,3.8515.56,5.3281,1.0859,1.4912,3.04,1.8467,4.93,2.19a8.6621,8.6621,0,0,1,3.252.9961,8.5969,8.5969,0,0,1,1.9189,2.7539c.9151,1.7051,1.86,3.47,3.64,4.0469,1.7065.5547,3.47-.291,5.1758-1.1084A8.8573,8.8573,0,0,1,32,55.9094a8.8573,8.8573,0,0,1,3.3193,1.1279,9.8639,9.8639,0,0,0,4.024,1.2861,3.6939,3.6939,0,0,0,1.1513-.1777c1.78-.5771,2.7251-2.3418,3.64-4.0469a8.5969,8.5969,0,0,1,1.9189-2.7539,8.6727,8.6727,0,0,1,3.2515-.9961c1.8906-.3437,3.8452-.6992,4.9311-2.1914,1.0743-1.4756.813-3.4336.56-5.3271a8.7727,8.7727,0,0,1-.0508-3.44A8.457,8.457,0,0,1,56.7368,36.7668Zm-3.894,2.0068a10.031,10.031,0,0,0-.0293,4.3213c.2007,1.503.4082,3.0576-.1948,3.8858-.6143.8447-2.1685,1.1269-3.6714,1.4a9.9238,9.9238,0,0,0-4.0708,1.3466,9.829,9.829,0,0,0-2.5049,3.4258c-.7276,1.3574-1.48,2.7608-2.4946,3.09-.9454.3056-2.3423-.3623-3.6929-1.01A10.1407,10.1407,0,0,0,32,53.9094a10.1407,10.1407,0,0,0-4.1841,1.3242c-1.35.6484-2.7471,1.3154-3.6933,1.01-1.0142-.3291-1.7666-1.7325-2.4947-3.09a9.829,9.829,0,0,0-2.5049-3.4258,9.9238,9.9238,0,0,0-4.0708-1.3466c-1.5029-.2735-3.0566-.5567-3.6709-1.4-.603-.8291-.3955-2.3837-.1948-3.8867a10.031,10.031,0,0,0-.0293-4.3213A9.6785,9.6785,0,0,0,8.7056,35.382C7.6289,34.26,6.5156,33.1008,6.5156,32s1.1133-2.26,2.19-3.3818a9.6785,9.6785,0,0,0,2.4516-3.3916,10.031,10.031,0,0,0,.0293-4.3213c-.2007-1.503-.4082-3.0576.1948-3.8858.6143-.8447,2.1685-1.1269,3.6714-1.4a9.9238,9.9238,0,0,0,4.0708-1.3466,9.829,9.829,0,0,0,2.5049-3.4258c.7276-1.3574,1.48-2.7608,2.4946-3.09.9424-.3066,2.3418.3614,3.6929,1.01A10.1407,10.1407,0,0,0,32,10.091a10.1407,10.1407,0,0,0,4.1841-1.3242c1.3506-.6475,2.7485-1.3154,3.6933-1.01,1.0142.3291,1.7666,1.7325,2.4947,3.09a9.829,9.829,0,0,0,2.5049,3.4258,9.9238,9.9238,0,0,0,4.0708,1.3466c1.5029.2735,3.0566.5567,3.6709,1.3995.603.8291.3955,2.3837.1948,3.8867a10.031,10.031,0,0,0,.0293,4.3213,9.6785,9.6785,0,0,0,2.4516,3.3916c1.0767,1.122,2.19,2.2812,2.19,3.3818s-1.1133,2.26-2.19,3.3818A9.6785,9.6785,0,0,0,52.8428,38.7736Z"></path></g></svg>